<svg xmlns="http://www.w3.org/2000/svg" width="648.2879638671875" height="170.01129150390625" viewBox="-220.16319274902344 -7.402416229248047 648.2879638671875 170.01129150390625"><title>Neo4j Graph Visualization</title><desc>Created using Neo4j (http://www.neo4j.com/)</desc><g class="layer relationships"><g class="relationship" transform="translate(399.12476743446507 120.63429621904928) rotate(231.355513905757)"><path class="outline" fill="#D9C8AE" stroke="none" d="M 17.324116139070416,18.03122292025696 L 18.031222920256962,17.324116139070412 A 57.21703560480096 57.21703560480096 0 0 0 45.4955425946027,32.587542136150034 L 45.26843830540197,33.56141258021672 A 58.21703560480096 58.21703560480096 0 0 1 17.324116139070416,18.03122292025696 Z M 67.1956092522825,34.427978090609734 L 67.0460682740098,33.43922256176692 A 57.21703560480096 57.21703560480096 0 0 0 95.62927682667095,20.39080437494983 L 93.68198090483796,18.10869162733795 L 101.27875589140416,16.227466015274857 L 98.22567138911492,23.43362137176567 L 96.27837546728193,21.15150862415379 A 58.21703560480096 58.21703560480096 0 0 1 67.1956092522825,34.427978090609734"/><text text-anchor="middle" pointer-events="none" font-size="8px" fill="#000000" x="56.21056896001723" y="37.53757810003777" transform="rotate(180 56.21056896001723 34.53757810003777)" font-family="sans-serif">N19</text></g><g class="relationship" transform="translate(324.00134894474024 26.678526124363255) rotate(505.72867495014987)"><path class="outline" fill="#D9C8AE" stroke="none" d="M 24.018736134675446,6.953439040707552 L 24.277555179777966,5.987513214418485 A 81.80601900638776 81.80601900638776 0 0 0 33.16536754654291,7.847270342275124 L 33.0151934700468,8.835929912981115 A 82.80601900638776 82.80601900638776 0 0 1 24.018736134675446,6.953439040707552 Z M 54.966578775903685,9.226375105594926 L 54.85165877386229,8.233000356001 A 81.80601900638776 81.80601900638776 0 0 0 63.799986613680254,6.690491324399509 L 63.12707247115496,3.766934149177951 L 70.7337723796181,5.607617854377423 L 64.69720547038064,10.588567558028252 L 64.02429132785535,7.6650103828066944 A 82.80601900638776 82.80601900638776 0 0 1 54.966578775903685,9.226375105594926"/><text text-anchor="middle" pointer-events="none" font-size="8px" fill="#000000" x="43.98678062963001" y="12.261969197511291" transform="rotate(180 43.98678062963001 9.261969197511291)" font-family="sans-serif">N19</text></g><g class="relationship" transform="translate(245.4152766981672 80.22869782115595) rotate(189.7156299766882)"><path class="outline" fill="#D9C8AE" stroke="none" d="M 5.987513214418485,24.277555179777966 L 6.953439040707552,24.018736134675446 A 35.56375530943274 35.56375530943274 0 0 0 28.138117502592856,47.850557946582256 L 27.767873383074118,48.7794924394082 A 36.56375530943274 36.56375530943274 0 0 1 5.987513214418485,24.277555179777966 Z M 49.55627175619749,50.434814923757585 L 49.330614328166426,49.46060820792444 A 35.56375530943274 35.56375530943274 0 0 0 73.87249975756653,29.102754883515647 L 71.12528332609354,27.897432570337646 L 77.1427878935607,22.893470262274985 L 77.53545499953053,30.709851301086314 L 74.78823856805754,29.504528987908312 A 36.56375530943274 36.56375530943274 0 0 1 49.55627175619749,50.434814923757585"/><text text-anchor="middle" pointer-events="none" font-size="8px" fill="#000000" x="38.57340247023083" y="53.77428544466004" transform="rotate(180 38.57340247023083 50.77428544466004)" font-family="sans-serif">N19</text></g><g class="relationship" transform="translate(159.47862042298112 65.51514701259217) rotate(514.3872433963813)"><path class="outline" fill="#D9C8AE" stroke="none" d="M 12.066987298107785,21.900635094610966 L 12.933012701892222,21.400635094610966 A 50.838182523183775 50.838182523183775 0 0 0 43.72885620229344,45.06772448351067 L 43.46859288464097,46.033262160395694 A 51.838182523183775 51.838182523183775 0 0 1 12.066987298107785,21.900635094610966 Z M 65.37393471909827,47.13235746048724 L 65.21162647331562,46.14561735622931 A 50.838182523183775 50.838182523183775 0 0 0 98.22181897829437,25.679980600251863 L 95.78693755563856,23.927453151791873 L 102.7168632618103,20.290678522131664 L 101.46832754183544,28.01668386486518 L 99.03344611917963,26.26415641640519 A 51.838182523183775 51.838182523183775 0 0 1 65.37393471909827,47.13235746048724"/><text text-anchor="middle" pointer-events="none" font-size="8px" fill="#000000" x="54.387525479643266" y="50.25522600695122" transform="rotate(180 54.387525479643266 47.25522600695122)" font-family="sans-serif">N19</text></g><g class="relationship" transform="translate(53.68578243658612 116.23154638868371) rotate(187.30954053360642)"><path class="outline" fill="#D9C8AE" stroke="none" d="M 17.324116139070416,-18.03122292025696 L 18.031222920256962,-17.324116139070412 A 57.27733186700198 57.27733186700198 0 0 1 45.53697998036168,-32.60653932384983 L 45.3100938408065,-33.5804606141386 A 58.27733186700198 58.27733186700198 0 0 0 17.324116139070416,-18.03122292025696 Z M 67.23736561540257,-34.4464563196716 L 67.08799445092335,-33.45767512283272 A 57.27733186700198 57.27733186700198 0 0 1 95.71332766466215,-20.392093304535994 L 93.76591249563978,-18.110082314321083 L 101.36258917000065,-16.228459741852976 L 98.30988122335862,-23.434774624822538 L 96.36246605433625,-21.152763634607627 A 58.27733186700198 58.27733186700198 0 0 0 67.23736561540257,-34.4464563196716"/><text text-anchor="middle" pointer-events="none" font-size="8px" fill="#000000" x="56.25233217192195" y="-31.555251026302294" transform="rotate(180 56.25233217192195 -34.555251026302294)" font-family="sans-serif">N19</text></g><g class="relationship" transform="translate(-65.71527463200334 100.91570959796823) rotate(237.75895365299357)"><path class="outline" fill="#D9C8AE" stroke="none" d="M 21.40063509461097,-12.933012701892217 L 21.90063509461097,-12.06698729810778 A 45.72155852117354 45.72155852117354 0 0 1 32.48671369930353,-16.51403318383302 L 32.2182473334816,-17.477322242435044 A 46.72155852117354 46.72155852117354 0 0 0 21.40063509461097,-12.933012701892217 Z M 54.12216071714142,-18.245189680223156 L 53.92180895966095,-17.26546565108307 A 45.72155852117354 45.72155852117354 0 0 1 64.79331042783275,-13.57064046414745 L 63.47892635691192,-10.873902710099127 L 71.3047625324323,-10.953200591006901 L 66.54582252239385,-17.166290802878546 L 65.23143845147302,-14.469553048830223 A 46.72155852117354 46.72155852117354 0 0 0 54.12216071714142,-18.245189680223156"/><text text-anchor="middle" pointer-events="none" font-size="8px" fill="#000000" x="43.14205801167279" y="-15.664139134255116" transform="rotate(180 43.14205801167279 -18.664139134255116)" font-family="sans-serif">N19</text></g><g class="relationship" transform="translate(-115.74395657639732 21.59758456379083) rotate(484.9960851274881)"><path class="outline" fill="#D9C8AE" stroke="none" d="M 21.40063509461097,12.933012701892217 L 21.90063509461097,12.06698729810778 A 84.66678013453438 84.66678013453438 0 0 0 51.252638354858476,22.40909228561685 L 51.09931509411332,23.39726837200756 A 85.66678013453438 85.66678013453438 0 0 1 21.40063509461097,12.933012701892217 Z M 73.04689418598032,23.95567249571711 L 72.94402036475975,22.96097808188567 A 84.66678013453438 84.66678013453438 0 0 0 102.78396774500193,14.12487196512728 L 101.41802672816385,11.453878678254515 L 109.2439422505114,11.382841806983908 L 104.60522243411936,17.6861963476243 L 103.23928141728128,15.015203060751535 A 85.66678013453438 85.66678013453438 0 0 1 73.04689418598032,23.95567249571711"/><text text-anchor="middle" pointer-events="none" font-size="8px" fill="#000000" x="62.06785932327019" y="26.88263296012063" transform="rotate(180 62.06785932327019 23.88263296012063)" font-family="sans-serif">N19</text></g><g class="relationship" transform="translate(245.4152766981672 80.22869782115595) rotate(189.7156299766882)"><path class="outline" fill="#D9C8AE" stroke="none" d="M 17.324116139070416,18.03122292025696 L 18.031222920256962,17.324116139070412 A 32.914641003162025 32.914641003162025 0 0 0 29.060858726673708,24.60228368712424 L 28.688850110627627,25.530512963535774 A 33.914641003162025 33.914641003162025 0 0 1 17.324116139070416,18.03122292025696 Z M 50.47667061527096,26.700991061470923 L 50.20624812014556,25.738249313061647 A 32.914641003162025 32.914641003162025 0 0 0 61.95214396372087,19.683621354911427 L 60.070298569646205,17.34724426360105 L 67.7173314091242,15.68204495062226 L 64.46127115582044,22.798790809991935 L 62.57942576174577,20.462413718681557 A 33.914641003162025 33.914641003162025 0 0 1 50.47667061527096,26.700991061470923"/><text text-anchor="middle" pointer-events="none" font-size="8px" fill="#000000" x="39.51288320273892" y="30.416477781506373" transform="rotate(180 39.51288320273892 27.416477781506373)" font-family="sans-serif">N12</text></g><g class="relationship" transform="translate(159.47862042298112 65.51514701259217) rotate(514.3872433963813)"><path class="outline" fill="#D9C8AE" stroke="none" d="M 21.40063509461097,12.933012701892217 L 21.90063509461097,12.06698729810778 A 70.11907030917693 70.11907030917693 0 0 0 44.177647321856085,20.28620710330793 L 43.99534994011698,21.269450544481614 A 71.11907030917693 71.11907030917693 0 0 1 21.40063509461097,12.933012701892217 Z M 65.94009362494646,21.891953897286186 L 65.81382758495594,20.89995748240098 A 70.11907030917693 70.11907030917693 0 0 0 88.52094887576075,13.956796050913011 L 87.17064095721307,11.277865569338807 L 94.99683798585852,11.25256598789743 L 90.32135943382434,17.528703359678616 L 88.97105151527666,14.849772878104412 A 71.11907030917693 71.11907030917693 0 0 1 65.94009362494646,21.891953897286186"/><text text-anchor="middle" pointer-events="none" font-size="8px" fill="#000000" x="54.95773484776798" y="24.932765744075994" transform="rotate(180 54.95773484776798 21.932765744075994)" font-family="sans-serif">N12</text></g><g class="relationship" transform="translate(53.68578243658612 116.23154638868371) rotate(187.30954053360642)"><path class="outline" fill="#D9C8AE" stroke="none" d="M 24.018736134675446,-6.953439040707552 L 24.277555179777966,-5.987513214418485 A 132.35060618641774 132.35060618641774 0 0 1 51.32455250723664,-10.300833722353616 L 51.27009215837887,-11.299349656328758 A 133.35060618641774 133.35060618641774 0 0 0 24.018736134675446,-6.953439040707552 Z M 61.99775199472811,-11.452216827319177 L 61.97176531643588,-10.452554538067773 A 132.35060618641774 132.35060618641774 0 0 1 89.13068378140584,-6.911658316933368 L 88.43711073392114,-3.9929331795141527 L 96.05663794329811,-5.779775395705653 L 90.05544784471874,-10.80329183349232 L 89.36187479723405,-7.884566696073106 A 133.35060618641774 133.35060618641774 0 0 0 61.99775199472811,-11.452216827319177"/><text text-anchor="middle" pointer-events="none" font-size="8px" fill="#000000" x="56.6395082687039" y="-7.983764675759176" transform="rotate(180 56.6395082687039 -10.983764675759176)" font-family="sans-serif">6</text></g><g class="relationship" transform="translate(53.68578243658612 116.23154638868371) rotate(187.30954053360642)"><path class="outline" fill="#D9C8AE" stroke="none" d="M 24.018736134675446,6.953439040707552 L 24.277555179777966,5.987513214418485 A 132.35060618641774 132.35060618641774 0 0 0 46.6632027594614,9.96396063483553 L 46.57352270226916,10.95993126057806 A 133.35060618641774 133.35060618641774 0 0 1 24.018736134675446,6.953439040707552 Z M 66.70208582828623,11.246759566855076 L 66.64082121637153,10.248638007461153 A 132.35060618641774 132.35060618641774 0 0 0 89.13068378140584,6.911658316933368 L 88.43711073392114,3.9929331795141527 L 96.05663794329811,5.779775395705653 L 90.05544784471874,10.80329183349232 L 89.36187479723405,7.884566696073106 A 133.35060618641774 133.35060618641774 0 0 1 66.70208582828623,11.246759566855076"/><text text-anchor="middle" pointer-events="none" font-size="8px" fill="#000000" x="56.63950826870392" y="13.983764675759176" transform="rotate(180 56.63950826870392 10.983764675759176)" font-family="sans-serif">141</text></g><g class="relationship" transform="translate(-65.71527463200334 100.91570959796823) rotate(237.75895365299357)"><path class="outline" fill="#D9C8AE" stroke="none" d="M 25 0.5 L 33.35167919975082 0.5 L 33.35167919975082 -0.5 L 25 -0.5 Z M 53.42589794975082 0.5 L 61.77757714950164 0.5 L 61.77757714950164 3.5 L 68.77757714950164 0 L 61.77757714950164 -3.5 L 61.77757714950164 -0.5 L 53.42589794975082 -0.5 Z"/><text text-anchor="middle" pointer-events="none" font-size="8px" fill="#000000" x="43.38878857475082" y="3" transform="rotate(180 43.38878857475082 0)" font-family="sans-serif">141</text></g><g class="relationship" transform="translate(53.68578243658612 116.23154638868371) rotate(187.30954053360642)"><path class="outline" fill="#D9C8AE" stroke="none" d="M 17.324116139070416,18.03122292025696 L 18.031222920256962,17.324116139070412 A 57.27733186700198 57.27733186700198 0 0 0 45.53697998036169,32.60653932384983 L 45.310093840806516,33.5804606141386 A 58.27733186700198 58.27733186700198 0 0 1 17.324116139070416,18.03122292025696 Z M 67.23736561540257,34.4464563196716 L 67.08799445092335,33.45767512283272 A 57.27733186700198 57.27733186700198 0 0 0 95.71332766466215,20.392093304535994 L 93.76591249563978,18.110082314321083 L 101.36258917000065,16.228459741852976 L 98.30988122335862,23.434774624822538 L 96.36246605433625,21.152763634607627 A 58.27733186700198 58.27733186700198 0 0 1 67.23736561540257,34.4464563196716"/><text text-anchor="middle" pointer-events="none" font-size="8px" fill="#000000" x="56.25233217192196" y="37.555251026302294" transform="rotate(180 56.25233217192196 34.555251026302294)" font-family="sans-serif">N12</text></g><g class="relationship" transform="translate(399.12476743446507 120.63429621904928) rotate(231.355513905757)"><path class="outline" fill="#D9C8AE" stroke="none" d="M 24.018736134675446,6.953439040707552 L 24.277555179777966,5.987513214418485 A 132.18587373457808 132.18587373457808 0 0 0 46.621766114439524,9.95778833711114 L 46.531983368779464,10.953749711152199 A 133.18587373457808 133.18587373457808 0 0 1 24.018736134675446,6.953439040707552 Z M 66.66058992927648,11.240765972964056 L 66.59924098209191,10.242649593637822 A 132.18587373457808 132.18587373457808 0 0 0 89.04756985928988,6.911076772330016 L 88.35405112993962,3.9923387278936193 L 95.97354508453319,5.779322744585482 L 89.97226149842356,10.802727498245213 L 89.2787427690733,7.883989453808816 A 133.18587373457808 133.18587373457808 0 0 1 66.66058992927648,11.240765972964056"/><text text-anchor="middle" pointer-events="none" font-size="8px" fill="#000000" x="56.59798501263432" y="13.978150678537105" transform="rotate(180 56.59798501263432 10.978150678537105)" font-family="sans-serif">141</text></g><g class="relationship" transform="translate(399.12476743446507 120.63429621904928) rotate(231.355513905757)"><path class="outline" fill="#D9C8AE" stroke="none" d="M 24.018736134675446,-6.953439040707552 L 24.277555179777966,-5.987513214418485 A 132.18587373457808 132.18587373457808 0 0 1 48.95092550714095,-10.147015153228125 L 48.87876309659612,-11.144408047981415 A 133.18587373457808 133.18587373457808 0 0 0 24.018736134675446,-6.953439040707552 Z M 64.30932817824726,-11.364434361977345 L 64.26563321856977,-10.365389442817644 A 132.18587373457808 132.18587373457808 0 0 1 89.04756985928988,-6.911076772330016 L 88.35405112993962,-3.9923387278936193 L 95.97354508453319,-5.779322744585482 L 89.97226149842356,-10.802727498245213 L 89.2787427690733,-7.883989453808816 A 133.18587373457808 133.18587373457808 0 0 0 64.30932817824726,-11.364434361977345"/><text text-anchor="middle" pointer-events="none" font-size="8px" fill="#000000" x="56.59798501263427" y="-7.978150678537105" transform="rotate(180 56.59798501263427 -10.978150678537105)" font-family="sans-serif">70</text></g><g class="relationship" transform="translate(399.12476743446507 120.63429621904928) rotate(231.355513905757)"><path class="outline" fill="#D9C8AE" stroke="none" d="M 17.324116139070416,-18.03122292025696 L 18.031222920256962,-17.324116139070412 A 57.21703560480096 57.21703560480096 0 0 1 48.65404727025206,-33.230867089287116 L 48.48214515366064,-34.21598112446852 A 58.21703560480096 58.21703560480096 0 0 0 17.324116139070416,-18.03122292025696 Z M 63.94026872597969,-34.826888786729924 L 63.84664506628022,-33.83128112788811 A 57.21703560480096 57.21703560480096 0 0 1 95.62927682667095,-20.39080437494983 L 93.68198090483796,-18.10869162733795 L 101.27875589140416,-16.227466015274857 L 98.22567138911492,-23.43362137176567 L 96.27837546728193,-21.15150862415379 A 58.21703560480096 58.21703560480096 0 0 0 63.94026872597969,-34.826888786729924"/><text text-anchor="middle" pointer-events="none" font-size="8px" fill="#000000" x="56.21056896001722" y="-31.53757810003777" transform="rotate(180 56.21056896001722 -34.53757810003777)" font-family="sans-serif">57</text></g><g class="relationship" transform="translate(245.4152766981672 80.22869782115595) rotate(189.7156299766882)"><path class="outline" fill="#D9C8AE" stroke="none" d="M 24.018736134675446,6.953439040707552 L 24.277555179777966,5.987513214418485 A 65.79049693731295 65.79049693731295 0 0 0 30.129871972263953,7.273156811508258 L 29.9600067588685,8.258624116535742 A 66.79049693731295 66.79049693731295 0 0 1 24.018736134675446,6.953439040707552 Z M 50.10469990460599,8.64710040503168 L 49.97295494785037,7.655816759262493 A 65.79049693731295 65.79049693731295 0 0 0 55.870487628448686,6.596760774139191 L 55.20632945063101,3.6712020386430284 L 62.80748437424268,5.534651481813972 L 56.75603186553892,10.497505754800741 L 56.09187368772125,7.571947019304578 A 66.79049693731295 66.79049693731295 0 0 1 50.10469990460599,8.64710040503168"/><text text-anchor="middle" pointer-events="none" font-size="8px" fill="#000000" x="40.02726063726024" y="11.716947278485563" transform="rotate(180 40.02726063726024 8.716947278485563)" font-family="sans-serif">101</text></g><g class="relationship" transform="translate(-115.74395657639732 21.59758456379083) rotate(484.9960851274881)"><path class="outline" fill="#D9C8AE" stroke="none" d="M 25 0.5 L 52.21400044555887 0.5 L 52.21400044555887 -0.5 L 25 -0.5 Z M 72.28821919555887 0.5 L 99.50221964111773 0.5 L 99.50221964111773 3.5 L 106.50221964111773 0 L 99.50221964111773 -3.5 L 99.50221964111773 -0.5 L 72.28821919555887 -0.5 Z"/><text text-anchor="middle" pointer-events="none" font-size="8px" fill="#000000" x="62.25110982055887" y="3" transform="rotate(180 62.25110982055887 0)" font-family="sans-serif">141</text></g><g class="relationship" transform="translate(-115.74395657639732 21.59758456379083) rotate(484.9960851274881)"><path class="outline" fill="#D9C8AE" stroke="none" d="M 21.40063509461097,-12.933012701892217 L 21.90063509461097,-12.06698729810778 A 84.66678013453438 84.66678013453438 0 0 1 52.143633522164954,-22.542486512657916 L 52.000833812284625,-23.5322381193038 A 85.66678013453438 85.66678013453438 0 0 0 21.40063509461097,-12.933012701892217 Z M 72.13967834069175,-24.044623279614044 L 72.0473945736773,-23.048890531159117 A 84.66678013453438 84.66678013453438 0 0 1 102.78396774500193,-14.12487196512728 L 101.41802672816385,-11.453878678254515 L 109.2439422505114,-11.382841806983908 L 104.60522243411936,-17.6861963476243 L 103.23928141728128,-15.015203060751535 A 85.66678013453438 85.66678013453438 0 0 0 72.13967834069175,-24.044623279614044"/><text text-anchor="middle" pointer-events="none" font-size="8px" fill="#000000" x="62.06785932327016" y="-20.88263296012063" transform="rotate(180 62.06785932327016 -23.88263296012063)" font-family="sans-serif">143</text></g><g class="relationship" transform="translate(245.4152766981672 80.22869782115595) rotate(189.7156299766882)"><path class="outline" fill="#D9C8AE" stroke="none" d="M 24.018736134675446,-6.953439040707552 L 24.277555179777966,-5.987513214418485 A 65.79049693731295 65.79049693731295 0 0 1 34.74237368647922,-7.901100586845331 L 34.64261740870421,-8.896112488806537 A 66.79049693731295 66.79049693731295 0 0 0 24.018736134675446,-6.953439040707552 Z M 45.40099284503106,-9.10358021886897 L 45.33967268334756,-8.105462070666505 A 65.79049693731295 65.79049693731295 0 0 1 55.870487628448686,-6.596760774139191 L 55.20632945063101,-3.6712020386430284 L 62.80748437424268,-5.534651481813972 L 56.75603186553892,-10.497505754800741 L 56.09187368772125,-7.571947019304578 A 66.79049693731295 66.79049693731295 0 0 0 45.40099284503106,-9.10358021886897"/><text text-anchor="middle" pointer-events="none" font-size="8px" fill="#000000" x="40.02726063726021" y="-5.716947278485563" transform="rotate(180 40.02726063726021 -8.716947278485563)" font-family="sans-serif">2</text></g><g class="relationship" transform="translate(324.00134894474024 26.678526124363255) rotate(505.72867495014987)"><path class="outline" fill="#D9C8AE" stroke="none" d="M 24.018736134675446,-6.953439040707552 L 24.277555179777966,-5.987513214418485 A 81.80601900638776 81.80601900638776 0 0 1 34.056624048257916,-7.977633456614015 L 33.91734472635982,-8.967886591166803 A 82.80601900638776 82.80601900638776 0 0 0 24.018736134675446,-6.953439040707552 Z M 54.06030547458163,-9.326165673765459 L 53.95633000667189,-8.331585811676462 A 81.80601900638776 81.80601900638776 0 0 1 63.799986613680254,-6.690491324399509 L 63.12707247115496,-3.766934149177951 L 70.7337723796181,-5.607617854377423 L 64.69720547038064,-10.588567558028252 L 64.02429132785535,-7.6650103828066944 A 82.80601900638776 82.80601900638776 0 0 0 54.06030547458163,-9.326165673765459"/><text text-anchor="middle" pointer-events="none" font-size="8px" fill="#000000" x="43.98678062963001" y="-6.261969197511291" transform="rotate(180 43.98678062963001 -9.261969197511291)" font-family="sans-serif">141</text></g><g class="relationship" transform="translate(245.4152766981672 80.22869782115595) rotate(189.7156299766882)"><path class="outline" fill="#D9C8AE" stroke="none" d="M 17.324116139070416,-18.03122292025696 L 18.031222920256962,-17.324116139070412 A 32.914641003162025 32.914641003162025 0 0 1 29.893880576866614,-24.923095137141512 L 29.547180511204324,-25.861071183994397 A 33.914641003162025 33.914641003162025 0 0 0 17.324116139070416,-18.03122292025696 Z M 49.587866197769635,-26.937690282207 L 49.3436508035072,-25.967969270160115 A 32.914641003162025 32.914641003162025 0 0 1 61.95214396372087,-19.683621354911427 L 60.070298569646205,-17.34724426360105 L 67.7173314091242,-15.68204495062226 L 64.46127115582044,-22.798790809991935 L 62.57942576174577,-20.462413718681557 A 33.914641003162025 33.914641003162025 0 0 0 49.587866197769635,-26.937690282207"/><text text-anchor="middle" pointer-events="none" font-size="8px" fill="#000000" x="39.51288320273891" y="-24.416477781506373" transform="rotate(180 39.51288320273891 -27.416477781506373)" font-family="sans-serif">141</text></g><g class="relationship" transform="translate(159.47862042298112 65.51514701259217) rotate(514.3872433963813)"><path class="outline" fill="#D9C8AE" stroke="none" d="M 25 0.5 L 45.12351995782177 0.5 L 45.12351995782177 -0.5 L 25 -0.5 Z M 65.19773870782177 0.5 L 85.32125866564354 0.5 L 85.32125866564354 3.5 L 92.32125866564354 0 L 85.32125866564354 -3.5 L 85.32125866564354 -0.5 L 65.19773870782177 -0.5 Z"/><text text-anchor="middle" pointer-events="none" font-size="8px" fill="#000000" x="55.16062933282177" y="3" transform="rotate(180 55.16062933282177 0)" font-family="sans-serif">118</text></g><g class="relationship" transform="translate(159.47862042298112 65.51514701259217) rotate(514.3872433963813)"><path class="outline" fill="#D9C8AE" stroke="none" d="M 21.40063509461097,-12.933012701892217 L 21.90063509461097,-12.06698729810778 A 70.11907030917693 70.11907030917693 0 0 1 45.063430982008214,-20.444562970987647 L 44.89376616450943,-21.430064797319346 A 71.11907030917693 71.11907030917693 0 0 0 21.40063509461097,-12.933012701892217 Z M 65.03401719457975,-22.001380369403762 L 64.92049142842053,-21.007845316968286 A 70.11907030917693 70.11907030917693 0 0 1 88.52094887576075,-13.956796050913011 L 87.17064095721307,-11.277865569338807 L 94.99683798585852,-11.25256598789743 L 90.32135943382434,-17.528703359678616 L 88.97105151527666,-14.849772878104412 A 71.11907030917693 71.11907030917693 0 0 0 65.03401719457975,-22.001380369403762"/><text text-anchor="middle" pointer-events="none" font-size="8px" fill="#000000" x="54.95773484776799" y="-18.932765744075994" transform="rotate(180 54.95773484776799 -21.932765744075994)" font-family="sans-serif">141</text></g><g class="relationship" transform="translate(-65.71527463200334 100.91570959796823) rotate(237.75895365299357)"><path class="outline" fill="#D9C8AE" stroke="none" d="M 21.40063509461097,12.933012701892217 L 21.90063509461097,12.06698729810778 A 45.72155852117354 45.72155852117354 0 0 0 37.89741958778706,17.67434636090141 L 37.747293586193486,18.663013232828206 A 46.72155852117354 46.72155852117354 0 0 1 21.40063509461097,12.933012701892217 Z M 48.52365792048707,19.04079135517133 L 48.44313313312184,18.044038748643615 A 45.72155852117354 45.72155852117354 0 0 0 64.79331042783275,13.57064046414745 L 63.47892635691192,10.873902710099127 L 71.3047625324323,10.953200591006901 L 66.54582252239385,17.166290802878546 L 65.23143845147302,14.469553048830223 A 46.72155852117354 46.72155852117354 0 0 1 48.52365792048707,19.04079135517133"/><text text-anchor="middle" pointer-events="none" font-size="8px" fill="#000000" x="43.14205801167278" y="21.664139134255116" transform="rotate(180 43.14205801167278 18.664139134255116)" font-family="sans-serif">6</text></g><g class="relationship" transform="translate(245.4152766981672 80.22869782115595) rotate(189.7156299766882)"><path class="outline" fill="#D9C8AE" stroke="none" d="M 5.987513214418485,-24.277555179777966 L 6.953439040707552,-24.018736134675446 A 35.56375530943274 35.56375530943274 0 0 1 33.403610069274556,-49.488970913170135 L 33.18142378338075,-50.46397514616645 A 36.56375530943274 36.56375530943274 0 0 0 5.987513214418485,-24.277555179777966 Z M 43.95037464331285,-51.28212094036526 L 43.87803563308222,-50.28474083849895 A 35.56375530943274 35.56375530943274 0 0 1 73.87249975756653,-29.102754883515647 L 71.12528332609354,-27.897432570337646 L 77.1427878935607,-22.893470262274985 L 77.53545499953053,-30.709851301086314 L 74.78823856805754,-29.504528987908312 A 36.56375530943274 36.56375530943274 0 0 0 43.95037464331285,-51.28212094036526"/><text text-anchor="middle" pointer-events="none" font-size="8px" fill="#000000" x="38.573402470230825" y="-47.77428544466004" transform="rotate(180 38.573402470230825 -50.77428544466004)" font-family="sans-serif">1</text></g><g class="relationship" transform="translate(159.47862042298112 65.51514701259217) rotate(514.3872433963813)"><path class="outline" fill="#D9C8AE" stroke="none" d="M 12.066987298107785,-21.900635094610966 L 12.933012701892222,-21.400635094610966 A 50.838182523183775 50.838182523183775 0 0 1 49.14894011951682,-46.21604876858788 L 48.995291233148386,-47.20417427666756 A 51.838182523183775 51.838182523183775 0 0 0 12.066987298107785,-21.900635094610966 Z M 59.75778808516785,-47.74417998836559 L 59.703819799633976,-46.74563733822163 A 50.838182523183775 50.838182523183775 0 0 1 98.22181897829437,-25.679980600251863 L 95.78693755563856,-23.927453151791873 L 102.7168632618103,-20.290678522131664 L 101.46832754183544,-28.01668386486518 L 99.03344611917963,-26.26415641640519 A 51.838182523183775 51.838182523183775 0 0 0 59.75778808516785,-47.74417998836559"/><text text-anchor="middle" pointer-events="none" font-size="8px" fill="#000000" x="54.387525479643244" y="-44.25522600695122" transform="rotate(180 54.387525479643244 -47.25522600695122)" font-family="sans-serif">1</text></g></g><g class="layer nodes"><g class="node" transform="translate(399.12476743446507,120.63429621904928)"><circle class="outline" cx="0" cy="0" r="25" fill="#F16667" stroke="#eb2728" stroke-width="2px"/><text text-anchor="middle" pointer-events="none" font-family="sans-serif" dy="1.5625" font-size="25" fill="#FFFFFF"/><text text-anchor="middle" pointer-events="none" x="0" y="5" font-size="25" fill="#FFFFFF" dy="1.5625" font-family="sans-serif"/><text text-anchor="middle" pointer-events="none" x="0" y="0" font-size="10px" fill="#FFFFFF" font-family="sans-serif"> Wan An</text><text text-anchor="middle" pointer-events="none" x="0" y="10" font-size="10px" fill="#FFFFFF" font-family="sans-serif"> Lu</text></g><g class="node" transform="translate(-191.16317066385918,129.32305006276357)"><circle class="outline" cx="0" cy="0" r="25" fill="#F16667" stroke="#eb2728" stroke-width="2px"/><text text-anchor="middle" pointer-events="none" font-family="sans-serif" dy="1.5625" font-size="25" fill="#FFFFFF"/><text text-anchor="middle" pointer-events="none" x="0" y="5" font-size="25" fill="#FFFFFF" dy="1.5625" font-family="sans-serif"/><text text-anchor="middle" pointer-events="none" x="0" y="0" font-size="10px" fill="#FFFFFF" font-family="sans-serif"> JK</text><text text-anchor="middle" pointer-events="none" x="0" y="10" font-size="10px" fill="#FFFFFF" font-family="sans-serif"> Avenue</text></g><g class="node" transform="translate(324.00134894474024,26.678526124363255)"><circle class="outline" cx="0" cy="0" r="25" fill="#F16667" stroke="#eb2728" stroke-width="2px"/><text text-anchor="middle" pointer-events="none" font-family="sans-serif" dy="1.5625" font-size="25" fill="#FFFFFF"/><text text-anchor="middle" pointer-events="none" x="0" y="5" font-size="25" fill="#FFFFFF" dy="1.5625" font-family="sans-serif"/><text text-anchor="middle" pointer-events="none" x="0" y="0" font-size="10px" fill="#FFFFFF" font-family="sans-serif"> Wan An</text><text text-anchor="middle" pointer-events="none" x="0" y="10" font-size="10px" fill="#FFFFFF" font-family="sans-serif"> Lu E</text></g><g class="node" transform="translate(245.4152766981672,80.22869782115595)"><circle class="outline" cx="0" cy="0" r="25" fill="#F16667" stroke="#eb2728" stroke-width="2px"/><text text-anchor="middle" pointer-events="none" font-family="sans-serif" dy="1.5625" font-size="25" fill="#FFFFFF"/><text text-anchor="middle" pointer-events="none" x="0" y="5" font-size="25" fill="#FFFFFF" dy="1.5625" font-family="sans-serif"/><text text-anchor="middle" pointer-events="none" x="0" y="0" font-size="10px" fill="#FFFFFF" font-family="sans-serif"> Art</text><text text-anchor="middle" pointer-events="none" x="0" y="10" font-size="10px" fill="#FFFFFF" font-family="sans-serif"> Center</text></g><g class="node" transform="translate(159.47862042298112,65.51514701259217)"><circle class="outline" cx="0" cy="0" r="25" fill="#F16667" stroke="#eb2728" stroke-width="2px"/><text text-anchor="middle" pointer-events="none" font-family="sans-serif" dy="1.5625" font-size="25" fill="#FFFFFF"/><text text-anchor="middle" pointer-events="none" x="0" y="5" font-size="10px" fill="#FFFFFF" font-family="sans-serif"> Hangtia…</text></g><g class="node" transform="translate(53.68578243658612,116.23154638868371)"><circle class="outline" cx="0" cy="0" r="25" fill="#F16667" stroke="#eb2728" stroke-width="2px"/><text text-anchor="middle" pointer-events="none" font-family="sans-serif" dy="1.5625" font-size="25" fill="#FFFFFF"/><text text-anchor="middle" pointer-events="none" x="0" y="5" font-size="10px" fill="#FFFFFF" font-family="sans-serif"> Hangtia…</text></g><g class="node" transform="translate(-65.71527463200334,100.91570959796823)"><circle class="outline" cx="0" cy="0" r="25" fill="#F16667" stroke="#eb2728" stroke-width="2px"/><text text-anchor="middle" pointer-events="none" font-family="sans-serif" dy="1.5625" font-size="25" fill="#FFFFFF"/><text text-anchor="middle" pointer-events="none" x="0" y="5" font-size="10px" fill="#FFFFFF" font-family="sans-serif"> JinHeDa…</text></g><g class="node" transform="translate(-115.74395657639732,21.59758456379083)"><circle class="outline" cx="0" cy="0" r="25" fill="#F16667" stroke="#eb2728" stroke-width="2px"/><text text-anchor="middle" pointer-events="none" font-family="sans-serif" dy="1.5625" font-size="25" fill="#FFFFFF"/><text text-anchor="middle" pointer-events="none" x="0" y="5" font-size="25" fill="#FFFFFF" dy="1.5625" font-family="sans-serif"/><text text-anchor="middle" pointer-events="none" font-family="sans-serif" dy="1.5625" font-size="25" fill="#FFFFFF"/><text text-anchor="middle" pointer-events="none" x="0" y="-5" font-size="10px" fill="#FFFFFF" font-family="sans-serif"> JK</text><text text-anchor="middle" pointer-events="none" x="0" y="5" font-size="10px" fill="#FFFFFF" font-family="sans-serif"> Avenue</text><text text-anchor="middle" pointer-events="none" x="0" y="15" font-size="10px" fill="#FFFFFF" font-family="sans-serif"> W</text></g></g></svg>